<svg width="150" height="121" viewBox="0 0 150 121" fill="none" xmlns="http://www.w3.org/2000/svg">
<path d="M74.8587 2.80206C88.9862 2.96631 101.298 6.79599 112.205 14.4691C120.355 20.2013 126.583 27.3925 131.066 35.9252C131.916 37.5457 131.651 39.2156 131.61 40.8635C131.536 43.653 131.357 46.4424 131.086 49.2209C130.704 53.1683 130.312 57.1239 129.718 61.0467C128.758 67.3893 127.749 73.732 126.533 80.0363C125.423 85.7932 124.011 91.5008 122.733 97.2303C122.721 97.2877 122.686 97.3425 122.683 97.4C122.56 99.9978 120.988 101.807 119.092 103.565C109.83 112.16 98.8489 117.819 85.9164 119.675C63.7539 122.855 45.0997 116.412 29.8243 101.219C28.2938 99.6967 27.5227 97.9967 27.1136 96.0203C25.7685 89.5544 24.2675 83.116 23.0255 76.6337C21.907 70.792 20.8651 64.9284 20.1234 59.0374C19.2964 52.4484 18.4546 45.8429 18.6724 39.1827C18.693 38.5832 18.8166 37.9426 19.0786 37.4006C25.7421 23.6504 36.4201 13.5985 51.254 7.4694C57.3965 4.93179 63.8687 3.47547 70.5822 3.02106C72.1627 2.91429 73.7432 2.85681 74.8587 2.80206ZM66.6471 114.164C68.5101 114.082 70.2113 114.093 71.889 113.918C78.0227 113.272 83.0644 110.887 86.405 105.856C86.611 105.544 87.0201 105.276 87.3968 105.144C89.5542 104.386 91.794 103.811 93.8867 102.927C103.708 98.7851 111.402 92.5027 115.802 83.1926C121.064 72.0567 121.638 60.7812 116.314 49.4755C112.585 41.5561 106.74 35.3202 98.7842 30.8746C88.633 25.2026 77.6783 23.4753 66.1055 25.7939C54.9183 28.0358 45.862 33.5107 39.2132 42.1994C32.6734 50.7457 29.9362 60.3158 31.3607 70.7482C32.8058 81.3339 38.0271 90.1211 46.8686 96.9264C52.9316 101.591 59.757 104.89 67.6537 106.007C68.0363 106.061 68.4777 106.335 68.7132 106.631C69.9405 108.175 69.9258 109.825 68.8927 111.424C68.3129 112.325 67.5271 113.105 66.6471 114.164Z" fill="#005895"/>
<path d="M74.9411 0.00164426C81.1866 -0.0312051 87.3909 0.428699 93.5482 1.33206C101.81 2.54474 109.798 4.6252 117.229 8.29064C123.269 11.269 128.531 15.1452 132.328 20.4887C135.76 25.3203 138.176 30.609 138.977 36.3933C139.413 39.5331 139.521 42.7195 139.598 45.8895C139.669 48.8185 139.48 51.7531 139.468 54.6876C139.465 55.101 139.698 55.6375 140.022 55.9113C142.941 58.375 143.654 61.5093 143.345 64.9831C143.277 65.7441 143.189 66.5079 143.192 67.2689C143.192 67.4633 143.459 67.7343 143.677 67.8328C144.752 68.331 145.905 68.6924 146.924 69.2672C149.54 70.74 150.361 73.0039 149.861 75.7112C148.648 82.2728 147.094 88.7551 144.392 94.9472C143.942 95.9792 143.386 96.9757 142.794 97.9475C141.967 99.3025 140.552 99.9622 138.992 100.187C137.57 100.392 136.104 100.304 134.662 100.389C134.338 100.408 133.932 100.537 133.726 100.748C132.761 101.742 131.731 102.62 130.347 103.105C130.056 103.206 129.812 103.567 129.665 103.86C129.114 104.977 128.767 106.209 128.058 107.225C126.548 109.382 124.399 110.584 121.512 110.417C120.373 110.351 120.293 110.307 120.549 109.286C121.889 103.899 123.34 98.5333 124.546 93.1214C126.115 86.0998 127.643 79.0646 128.902 71.991C129.985 65.9057 130.762 59.7683 131.489 53.6337C131.934 49.8724 132.051 46.0756 132.269 42.2925C132.381 40.327 132.469 38.356 132.428 36.3878C132.346 32.5225 131.993 28.6819 130.188 25.1122C128.876 22.5171 127.172 20.1547 125.103 18.025C119.869 12.6377 113.262 9.27886 105.992 6.93834C99.6554 4.8962 93.1214 3.68079 86.4373 3.199C82.4404 2.90883 78.4288 2.51736 74.4289 2.56663C65.0165 2.68434 55.6835 3.58223 46.6125 6.0952C40.261 7.85538 34.2509 10.3191 29.0649 14.2364C22.9489 18.8572 18.6165 24.5237 17.6246 32.0133C17.4627 33.2342 17.3568 34.4743 17.395 35.7007C17.5186 39.9574 17.5569 44.2251 17.9248 48.4681C18.3987 53.9403 19.0167 59.4097 19.8291 64.849C20.7032 70.6989 21.7363 76.5352 22.9489 82.3331C24.4706 89.6037 26.2306 96.8333 27.92 104.071C28.3291 105.823 28.8619 107.548 29.3328 109.289C29.5947 110.25 29.4799 110.34 28.4469 110.417C24.4382 110.718 21.5362 108.019 20.4913 104.709C20.1911 103.759 19.729 103.132 18.7401 102.702C17.9601 102.363 17.1507 101.859 16.6563 101.227C15.9617 100.337 15.1258 100.411 14.1604 100.4C12.8772 100.384 11.5704 100.313 10.3195 100.069C8.54179 99.7241 7.21734 98.6756 6.5404 97.118C5.34545 94.3696 4.0622 91.6294 3.2116 88.7852C2.01077 84.7694 1.10425 80.6742 0.215399 76.5872C-0.0612649 75.3115 -0.0553785 73.9264 0.141818 72.6343C0.412595 70.8714 1.86655 69.8147 3.42646 68.9689C4.18582 68.5582 5.02169 68.2571 5.84874 67.9642C6.36969 67.7808 6.61986 67.5071 6.58454 66.9842C6.52274 66.1055 6.50508 65.224 6.43444 64.3453C6.20487 61.523 6.79352 58.8239 8.97151 56.8365C10.4932 55.4486 10.3666 53.995 10.3372 52.3553C10.2783 49.2127 10.2754 46.0701 10.3401 42.9275C10.3784 41.0496 10.6109 39.1772 10.7198 37.2993C10.8699 34.6823 11.7028 32.2104 12.6211 29.7686C13.7719 26.7109 15.2023 23.7627 17.1095 21.0362C19.5848 17.4994 22.6899 14.5211 26.3218 11.9971C32.0288 8.03331 38.448 5.47654 45.2292 3.61234C51.9633 1.76182 58.871 0.825623 65.8435 0.300033C68.8662 0.0728252 71.9095 0.0947174 74.9411 0.00164426Z" fill="#00ACD9"/>
<path d="M68.0922 113.001C68.5072 112.732 68.9987 112.527 69.3225 112.185C70.8294 110.6 71.5034 108.818 70.5704 106.743C70.2054 105.93 69.5815 105.448 68.5867 105.311C60.8106 104.238 54.3061 100.797 48.4991 96.0148C44.9437 93.0885 41.971 89.7105 39.2809 86.0971C39.0896 85.8397 38.9277 85.566 38.8218 85.2594C40.623 87.0059 42.3919 88.7852 44.2373 90.4907C47.3277 93.3485 50.7742 95.7685 54.6828 97.6026C59.0329 99.6419 63.6774 100.707 68.4778 101.271C69.5108 101.394 70.5498 101.484 71.5829 101.624C74.1494 101.969 76.6187 101.356 79.0852 100.904C86.9171 99.4613 94.1486 96.7129 100.491 92.1112C105.504 88.4732 109.445 84.0029 112.444 78.799C115.496 73.5048 117.412 67.8711 118.336 61.9254C118.336 64.515 118.495 67.1156 118.301 69.6943C117.998 73.7019 117.035 77.6028 115.411 81.3421C111.846 89.5435 105.745 95.6672 97.604 100.105C94.0956 102.018 90.3901 103.507 86.4756 104.561C86.0224 104.684 85.5632 105.081 85.2954 105.464C81.4427 110.961 75.7917 113.233 68.9575 113.411C68.7721 113.417 68.5867 113.384 68.4012 113.367C68.2953 113.244 68.1923 113.124 68.0922 113.001Z" fill="#F59120"/>
<path d="M87.7823 97.1345C85.3865 95.5084 84.5889 94.0028 85.5454 91.8019C85.7838 91.2572 85.9575 90.6878 86.1517 90.1293C86.9199 87.9339 86.9023 85.8069 85.5602 83.7757C85.1304 83.1242 85.3806 82.4891 85.8986 82.0046C86.452 81.4872 86.4078 81.0711 85.7809 80.7426C84.4918 80.0637 84.4535 79.1002 84.8832 77.945C85.2335 77.0006 85.4689 76.0205 85.8044 75.0707C86.0487 74.3863 85.7809 74.0058 85.1775 73.6061C84.1297 72.9135 83.0349 72.2264 82.1931 71.3423C80.9805 70.0693 80.8363 68.5117 81.9164 67.1074C83.1438 65.5115 84.583 64.0552 85.8927 62.5112C87.6145 60.4828 89.3334 58.4544 90.9669 56.3684C91.2906 55.9551 91.3907 55.2488 91.2994 54.7232C89.8955 46.5273 92.2442 39.3552 98.0041 33.0864C98.2896 32.7744 98.581 32.4678 98.8694 32.1584C98.9283 32.2077 98.9901 32.2542 99.049 32.3035C98.5781 32.8893 98.0954 33.4697 97.6362 34.061C93.9307 38.8406 91.9175 44.132 92.1913 50.0696C92.2619 51.5615 92.5592 53.0452 92.824 54.5234C92.9947 55.4623 93.0036 56.3629 92.4061 57.1541C90.5754 59.5822 88.7388 62.0048 86.8522 64.3919C85.9722 65.5033 84.945 66.5107 84.0297 67.5974C82.8818 68.9661 82.9819 69.9735 84.4094 71.1123C85.1246 71.6844 85.931 72.1635 86.7139 72.6617C87.8323 73.3762 87.953 73.6691 87.5145 74.8708C87.0789 76.0698 86.658 77.2716 86.1812 78.4569C85.9457 79.0399 86.0311 79.4807 86.5609 79.8557C86.6874 79.9433 86.7963 80.0528 86.9111 80.1513C88.2061 81.2682 88.1855 81.2545 87.0023 82.4946C86.7698 82.7355 86.605 83.2666 86.7316 83.5321C87.7411 85.7001 87.6528 87.8791 86.9376 90.0801C86.7374 90.6987 86.5108 91.3229 86.1782 91.8868C85.1246 93.6661 85.8869 95.0951 87.1112 96.4528C87.3232 96.6883 87.5557 96.9072 87.7823 97.1345Z" fill="#F59120"/>
<path d="M116.09 48.991C112.352 41.296 106.581 35.2162 98.7842 30.8609C88.633 25.1889 77.6783 23.4616 66.1055 25.7802C54.9183 28.0222 45.862 33.497 39.2132 42.1857C37.5297 44.3839 36.0993 46.6505 34.9279 48.98L18.7666 45.7033C18.6489 43.5298 18.6047 41.3508 18.6783 39.1663C18.6989 38.5668 18.8225 37.9262 19.0845 37.3842C25.7479 23.634 36.426 13.5821 51.2599 7.45299C57.4024 4.91537 63.8745 3.45905 70.588 3.00464C72.1627 2.89788 73.7402 2.84313 74.8587 2.78564C88.9862 2.94989 101.298 6.77958 112.205 14.4526C120.355 20.1848 126.583 27.3761 131.066 35.9087C131.916 37.5293 131.651 39.1991 131.61 40.8471C131.569 42.4458 131.492 44.0417 131.383 45.6404L116.09 48.991Z" fill="url(#paint0_linear_58_18)"/>
<defs>
<linearGradient id="paint0_linear_58_18" x1="76.2125" y1="6.51506" x2="73.8187" y2="93.8611" gradientUnits="userSpaceOnUse">
<stop stop-color="#005895"/>
<stop offset="1" stop-color="#13416B"/>
</linearGradient>
</defs>
</svg>
