<?xml version="1.0" standalone="no"?><svg xmlns="http://www.w3.org/2000/svg" viewBox="0 0 1440 320"><path fill="#00ACD9" fill-opacity="1" d="M0,160L34.3,160C68.6,160,137,160,206,160C274.3,160,343,160,411,186.7C480,213,549,267,617,288C685.7,309,754,299,823,250.7C891.4,203,960,117,1029,112C1097.1,107,1166,181,1234,202.7C1302.9,224,1371,192,1406,176L1440,160L1440,0L1405.7,0C1371.4,0,1303,0,1234,0C1165.7,0,1097,0,1029,0C960,0,891,0,823,0C754.3,0,686,0,617,0C548.6,0,480,0,411,0C342.9,0,274,0,206,0C137.1,0,69,0,34,0L0,0Z"></path></svg>